# xmcd
#
# Track frame offsets:
#	150
#	18425
#	33337
#	51500
#	67237
#	82820
#	97432
#	114575
#	129183
#	145356
#	162753
#	183122
#	204720
#
# Disc length: 2997 seconds
#
# Revision: 1
# Processed by: cddbd v1.4b41PL2 Copyright (c) Steve Scherf et al.
# Submitted via: audiograbber 1.80
#
DISCID=b80bb30d
DTITLE=Lonestar - Lonely Grill
DYEAR=1900
DGENRE=
TTITLE0=Saturday Night
TTITLE1=Simple as that
TTITLE2=Amazed
TTITLE3=What about now
TTITLE4=Tell her
TTITLE5=Don't let's talk about Lisa
TTITLE6=I've gotta find you
TTITLE7=You don't know what love is
TTITLE8=All the way
TTITLE9=Smile
TTITLE10=Lonely grill
TTITLE11=Everything's changed
TTITLE12=Amazed
EXTD=
EXTT0=
EXTT1=
EXTT2=
EXTT3=
EXTT4=
EXTT5=
EXTT6=
EXTT7=
EXTT8=
EXTT9=
EXTT10=
EXTT11=
EXTT12=
PLAYORDER=
